
<svg width="512" height="512" viewBox="0 0 512 512" fill="none" xmlns="http://www.w3.org/2000/svg">
<rect width="512" height="512" fill="#0070F0"/>
<rect x="159.071" y="220.437" width="32.6587" height="183.976" transform="rotate(-45 159.071 220.437)" fill="white"/>
<rect x="239.504" y="399.828" width="32.6587" height="101.412" transform="rotate(-135 239.504 399.828)" fill="white"/>
<circle cx="227.217" cy="387.683" r="30.643" transform="rotate(-135 227.217 387.683)" fill="white"/>
<rect x="352.285" y="290.997" width="32.6587" height="183.976" transform="rotate(135 352.285 290.997)" fill="white"/>
<rect x="271.852" y="111.606" width="32.6587" height="101.412" transform="rotate(45 271.852 111.606)" fill="white"/>
<circle cx="284.139" cy="123.751" r="30.643" transform="rotate(45 284.139 123.751)" fill="white"/>
<rect x="99.0941" y="244.191" width="32.66" height="278.738" transform="rotate(-135 99.0941 244.191)" fill="white"/>
<rect x="76.6524" y="221.916" width="32.66" height="161.904" transform="rotate(-45 76.6524 221.916)" fill="white"/>
<rect x="296" y="198.094" width="32.66" height="161.904" transform="rotate(-45 296 198.094)" fill="white"/>
<rect x="352.582" y="290.997" width="32.6587" height="183.976" transform="rotate(135 352.582 290.997)" fill="white"/>
<rect x="272.149" y="111.606" width="32.6587" height="101.412" transform="rotate(45 272.149 111.606)" fill="white"/>
<circle cx="284.435" cy="123.751" r="30.643" transform="rotate(45 284.435 123.751)" fill="white"/>
<rect x="159.367" y="220.438" width="32.6587" height="183.976" transform="rotate(-45 159.367 220.438)" fill="white"/>
<rect x="239.801" y="399.829" width="32.6587" height="101.412" transform="rotate(-135 239.801 399.829)" fill="white"/>
<circle cx="227.514" cy="387.683" r="30.643" transform="rotate(-135 227.514 387.683)" fill="white"/>
<rect x="411.097" y="267" width="32.66" height="278.738" transform="rotate(45 411.097 267)" fill="white"/>
</svg>
